# WaveFront *.obj file (generated by Cinema 4D)

mtllib ./Cornel.mtl

v 4.461949 4.444070 -4.461949
v 4.461949 -4.479828 -4.461949
v 4.461949 -4.479828 4.461949
v 4.461949 4.444070 4.461949
v -4.461949 -4.479828 4.461949
v -4.461949 4.444070 4.461949
v -4.461949 4.444070 -4.461949
v -4.461949 -4.479828 -4.461949
v -2.230975 4.202777 2.230975
v 2.230975 4.202777 2.230975
v -2.230975 4.202777 -2.230975
v 2.230975 4.202777 -2.230975
v -3.046843 -4.508240 1.587833
v -3.046843 0.596216 1.587833
v -0.625617 -4.508240 0.558791
v -0.625617 0.596216 0.558791
v -1.549142 -4.508240 -1.614165
v -1.549142 0.596216 -1.614165
v -3.970368 -4.508240 -0.585123
v -3.970368 0.596216 -0.585123
v -4.461949 -4.479828 4.461949
v -4.461949 4.444070 4.461949
v 4.461949 -4.479828 4.461949
v 4.461949 4.444070 4.461949
v 4.461949 -4.479828 -4.461949
v 4.461949 4.444070 -4.461949
v -4.461949 -4.479828 -4.461949
v -4.461949 4.444070 -4.461949
# 28 vertices

vn -1.000000 0.000000 0.000000
vn 1.000000 0.000000 0.000000
vn 1.000000 0.000000 0.000000
vn 0.000000 -1.000000 0.000000
vn 0.391147 0.000000 0.920328
vn 0.391147 0.000000 0.920328
vn 0.920328 0.000000 -0.391147
vn 0.920328 0.000000 -0.391147
vn -0.391147 0.000000 -0.920328
vn -0.920328 0.000000 0.391147
vn 0.000000 1.000000 0.000000
vn 0.000000 1.000000 0.000000
vn 0.920328 0.000000 -0.391147
vn 0.000000 1.000000 0.000000
vn 0.000000 0.000000 1.000000
# 15 normals

vt 0.000000 0.000000 0.000000
vt 1.000000 1.000000 0.000000
vt 0.000000 1.000000 0.000000
vt 1.000000 0.000000 0.000000
# 4 texture coordinates

o Box
usemtl default
f 4/3/1 1/2/1 3/1/1
f 1/2/1 2/4/1 3/1/1
f 7/3/3 6/2/2 8/1/2
f 6/2/2 5/4/2 8/1/2
f 12/2/4 10/4/4 9/1/4
f 11/3/4 12/2/4 9/1/4
f 16/2/5 14/3/6 13/1/5
f 18/2/7 16/3/8 15/1/7
f 20/2/9 18/3/9 17/1/9
f 14/2/10 20/3/10 19/1/10
f 18/2/11 20/3/12 14/1/11
f 15/2/4 13/3/4 19/1/4
f 15/4/6 16/2/5 13/1/5
f 17/4/13 18/2/7 15/1/7
f 19/4/9 20/2/9 17/1/9
f 13/4/10 14/2/10 19/1/10
f 16/4/11 18/2/11 14/1/11
f 17/4/4 15/2/4 19/1/4
f 23/2/11 25/4/14 27/1/11
f 28/3/4 26/2/4 22/1/4
f 28/2/15 27/4/15 25/1/15
f 26/3/15 28/2/15 25/1/15
f 26/2/4 24/4/4 22/1/4
f 21/3/11 23/2/11 27/1/11

