# WaveFront *.obj file (generated by Cinema 4D)

mtllib ./Cornel.mtl

v 3.879956 3.860223 -3.879956
v 3.879956 -3.899688 -3.879956
v 3.879956 -3.899688 3.879956
v 3.879956 3.860223 3.879956
v -3.879956 -3.899688 3.879956
v -3.879956 3.860223 3.879956
v -3.879956 3.860223 -3.879956
v -3.879956 -3.899688 -3.879956
v -1.939978 3.650404 1.939978
v 1.939978 3.650404 1.939978
v -1.939978 3.650404 -1.939978
v 1.939978 3.650404 -1.939978
v -2.649428 -3.924393 1.380724
v -2.649428 0.514264 1.380724
v -0.544015 -3.924393 0.485905
v -0.544015 0.514264 0.485905
v -1.347080 -3.924393 -1.403621
v -1.347080 0.514264 -1.403621
v -3.452494 -3.924393 -0.508802
v -3.452494 0.514264 -0.508802
v -3.879956 -3.899688 3.879956
v -3.879956 3.860223 3.879956
v 3.879956 -3.899688 3.879956
v 3.879956 3.860223 3.879956
v 3.879956 -3.899688 -3.879956
v 3.879956 3.860223 -3.879956
v -3.879956 -3.899688 -3.879956
v -3.879956 3.860223 -3.879956
# 28 vertices

vn -1.000000 0.000000 0.000000
vn 1.000000 0.000000 0.000000
vn 1.000000 0.000000 0.000000
vn 0.000000 -1.000000 0.000000
vn 0.391147 0.000000 0.920328
vn 0.391147 0.000000 0.920328
vn 0.920328 0.000000 -0.391147
vn 0.920328 0.000000 -0.391147
vn -0.391147 0.000000 -0.920328
vn -0.920328 0.000000 0.391147
vn -0.920328 0.000000 0.391147
vn 0.000000 1.000000 0.000000
vn 0.000000 1.000000 0.000000
vn 0.000000 1.000000 0.000000
vn 0.000000 0.000000 1.000000
# 15 normals

vt 0.000000 0.000000 0.000000
vt 1.000000 1.000000 0.000000
vt 0.000000 1.000000 0.000000
vt 1.000000 0.000000 0.000000
# 4 texture coordinates

o Box
usemtl default
f 4/3/1 1/2/1 3/1/1
f 1/2/1 2/4/1 3/1/1
f 7/3/3 6/2/2 8/1/2
f 6/2/2 5/4/2 8/1/2
f 12/2/4 10/4/4 9/1/4
f 11/3/4 12/2/4 9/1/4
f 16/2/5 14/3/6 13/1/5
f 18/2/7 16/3/8 15/1/7
f 20/2/9 18/3/9 17/1/9
f 14/2/10 20/3/11 19/1/10
f 18/2/12 20/3/13 14/1/12
f 15/2/4 13/3/4 19/1/4
f 15/4/6 16/2/5 13/1/5
f 17/4/7 18/2/7 15/1/7
f 19/4/9 20/2/9 17/1/9
f 13/4/11 14/2/10 19/1/10
f 16/4/12 18/2/12 14/1/12
f 17/4/4 15/2/4 19/1/4
f 23/2/12 25/4/14 27/1/12
f 28/3/4 26/2/4 22/1/4
f 28/2/15 27/4/15 25/1/15
f 26/3/15 28/2/15 25/1/15
f 26/2/4 24/4/4 22/1/4
f 21/3/12 23/2/12 27/1/12

