# WaveFront *.obj file (generated by Cinema 4D)

mtllib ./Cube.mtl

v -6.881632 -10.141977 3.586297
v -6.881632 1.387003 3.586297
v -1.413025 -10.141977 1.262092
v -1.413025 1.387003 1.262092
v -3.498908 -10.141977 -3.645770
v -3.498908 1.387003 -3.645770
v -8.967516 -10.141977 -1.321564
v -8.967516 1.387003 -1.321564
# 8 vertices

vn 0.391147 0.000000 0.920328
vn 0.920328 0.000000 -0.391147
vn 0.920328 0.000000 -0.391147
vn -0.391147 0.000000 -0.920328
vn -0.920328 0.000000 0.391147
vn 0.000000 1.000000 0.000000
vn 0.000000 1.000000 0.000000
vn 0.000000 -1.000000 0.000000
# 8 normals

vt 0.000000 0.000000 0.000000
vt 0.000000 1.000000 0.000000
vt 1.000000 1.000000 0.000000
vt 1.000000 0.000000 0.000000
# 4 texture coordinates

o Cube
usemtl default
f 4/3/1 2/2/1 1/1/1
f 6/3/2 4/2/3 3/1/2
f 8/3/4 6/2/4 5/1/4
f 2/3/5 8/2/5 7/1/5
f 6/3/6 8/2/7 2/1/6
f 3/3/8 1/2/8 7/1/8
f 3/4/1 4/3/1 1/1/1
f 5/4/2 6/3/2 3/1/2
f 7/4/4 8/3/4 5/1/4
f 1/4/5 2/3/5 7/1/5
f 4/4/6 6/3/6 2/1/6
f 5/4/8 3/3/8 7/1/8

